<mxfile host="app.diagrams.net" modified="2021-04-21T12:16:43.069Z" agent="5.0 (Windows)" etag="GXzbkPk3M3ZcRAyCj0Ve" version="14.6.3" type="github">
  <diagram id="1N5ksvwPrex-zLJyI5F_" name="Page-1">
    <mxGraphModel dx="1673" dy="898" grid="1" gridSize="10" guides="1" tooltips="1" connect="1" arrows="1" fold="1" page="1" pageScale="1" pageWidth="827" pageHeight="1169" math="0" shadow="0">
      <root>
        <mxCell id="0" />
        <mxCell id="1" parent="0" />
        <mxCell id="FUg8YmXKxeV6hpPRnzRZ-61" value="" style="rounded=1;whiteSpace=wrap;html=1;fontSize=18;" vertex="1" parent="1">
          <mxGeometry x="460" y="300" width="340" height="350" as="geometry" />
        </mxCell>
        <mxCell id="FUg8YmXKxeV6hpPRnzRZ-33" value="" style="rounded=1;whiteSpace=wrap;html=1;" vertex="1" parent="1">
          <mxGeometry x="30" y="30" width="500" height="250" as="geometry" />
        </mxCell>
        <mxCell id="FUg8YmXKxeV6hpPRnzRZ-12" value="&lt;div&gt;Włączenie systemu &lt;br&gt;&lt;/div&gt;" style="text;html=1;strokeColor=none;fillColor=none;align=center;verticalAlign=middle;whiteSpace=wrap;rounded=0;" vertex="1" parent="1">
          <mxGeometry x="60" y="165" width="40" height="20" as="geometry" />
        </mxCell>
        <mxCell id="FUg8YmXKxeV6hpPRnzRZ-9" value="" style="outlineConnect=0;fontColor=#232F3E;gradientColor=none;strokeColor=#232F3E;fillColor=#ffffff;dashed=0;verticalLabelPosition=bottom;verticalAlign=top;align=center;html=1;fontSize=12;fontStyle=0;aspect=fixed;shape=mxgraph.aws4.resourceIcon;resIcon=mxgraph.aws4.camera;" vertex="1" parent="1">
          <mxGeometry x="50" y="96" width="60" height="60" as="geometry" />
        </mxCell>
        <mxCell id="FUg8YmXKxeV6hpPRnzRZ-15" value="" style="shape=image;html=1;verticalAlign=top;verticalLabelPosition=bottom;labelBackgroundColor=#ffffff;imageAspect=0;aspect=fixed;image=https://cdn2.iconfinder.com/data/icons/electronic-13/480/3-electronic-arduino-chipset-icon-2-128.png" vertex="1" parent="1">
          <mxGeometry x="225" y="71" width="110" height="110" as="geometry" />
        </mxCell>
        <mxCell id="FUg8YmXKxeV6hpPRnzRZ-16" value="Odebranie obrazu przez płytkę" style="text;html=1;strokeColor=none;fillColor=none;align=center;verticalAlign=middle;whiteSpace=wrap;rounded=0;" vertex="1" parent="1">
          <mxGeometry x="225" y="165" width="110" height="40" as="geometry" />
        </mxCell>
        <mxCell id="FUg8YmXKxeV6hpPRnzRZ-17" value="Obrazy" style="text;html=1;strokeColor=none;fillColor=none;align=center;verticalAlign=middle;whiteSpace=wrap;rounded=0;" vertex="1" parent="1">
          <mxGeometry x="140" y="90" width="40" height="20" as="geometry" />
        </mxCell>
        <mxCell id="FUg8YmXKxeV6hpPRnzRZ-19" value="" style="endArrow=classic;html=1;entryX=0;entryY=0.5;entryDx=0;entryDy=0;" edge="1" parent="1" source="FUg8YmXKxeV6hpPRnzRZ-9" target="FUg8YmXKxeV6hpPRnzRZ-15">
          <mxGeometry width="50" height="50" relative="1" as="geometry">
            <mxPoint x="120" y="120" as="sourcePoint" />
            <mxPoint x="490" y="240" as="targetPoint" />
          </mxGeometry>
        </mxCell>
        <mxCell id="FUg8YmXKxeV6hpPRnzRZ-21" value="" style="shape=image;html=1;verticalAlign=top;verticalLabelPosition=bottom;labelBackgroundColor=#ffffff;imageAspect=0;aspect=fixed;image=https://cdn3.iconfinder.com/data/icons/logos-and-brands-3/512/267_Python-128.png" vertex="1" parent="1">
          <mxGeometry x="430" y="91" width="70" height="70" as="geometry" />
        </mxCell>
        <mxCell id="FUg8YmXKxeV6hpPRnzRZ-22" value="&lt;div&gt;Przetworzenie obrazu&lt;/div&gt;&lt;div&gt;&lt;br&gt;&lt;/div&gt;" style="text;html=1;strokeColor=none;fillColor=none;align=center;verticalAlign=middle;whiteSpace=wrap;rounded=0;" vertex="1" parent="1">
          <mxGeometry x="430" y="170" width="85" height="30" as="geometry" />
        </mxCell>
        <mxCell id="FUg8YmXKxeV6hpPRnzRZ-23" value="" style="endArrow=classic;html=1;" edge="1" parent="1">
          <mxGeometry width="50" height="50" relative="1" as="geometry">
            <mxPoint x="350" y="130" as="sourcePoint" />
            <mxPoint x="420" y="130" as="targetPoint" />
          </mxGeometry>
        </mxCell>
        <mxCell id="FUg8YmXKxeV6hpPRnzRZ-24" value="Obrazy" style="text;html=1;strokeColor=none;fillColor=none;align=center;verticalAlign=middle;whiteSpace=wrap;rounded=0;" vertex="1" parent="1">
          <mxGeometry x="360" y="96" width="40" height="20" as="geometry" />
        </mxCell>
        <mxCell id="FUg8YmXKxeV6hpPRnzRZ-26" value="" style="endArrow=classic;html=1;" edge="1" parent="1">
          <mxGeometry width="50" height="50" relative="1" as="geometry">
            <mxPoint x="420" y="150" as="sourcePoint" />
            <mxPoint x="350" y="150" as="targetPoint" />
          </mxGeometry>
        </mxCell>
        <mxCell id="FUg8YmXKxeV6hpPRnzRZ-27" value="&lt;div&gt;Rozpoznany gest&lt;/div&gt;" style="text;html=1;strokeColor=none;fillColor=none;align=center;verticalAlign=middle;whiteSpace=wrap;rounded=0;" vertex="1" parent="1">
          <mxGeometry x="360" y="161" width="40" height="20" as="geometry" />
        </mxCell>
        <mxCell id="FUg8YmXKxeV6hpPRnzRZ-30" value="" style="endArrow=classic;html=1;exitX=0.5;exitY=1;exitDx=0;exitDy=0;" edge="1" parent="1" source="FUg8YmXKxeV6hpPRnzRZ-16">
          <mxGeometry width="50" height="50" relative="1" as="geometry">
            <mxPoint x="280" y="220" as="sourcePoint" />
            <mxPoint x="280" y="380" as="targetPoint" />
          </mxGeometry>
        </mxCell>
        <mxCell id="FUg8YmXKxeV6hpPRnzRZ-31" value="" style="pointerEvents=1;shadow=0;dashed=0;html=1;strokeColor=none;fillColor=#434445;aspect=fixed;labelPosition=center;verticalLabelPosition=bottom;verticalAlign=top;align=center;outlineConnect=0;shape=mxgraph.vvd.wi_fi;" vertex="1" parent="1">
          <mxGeometry x="259" y="390" width="50" height="50" as="geometry" />
        </mxCell>
        <mxCell id="FUg8YmXKxeV6hpPRnzRZ-32" value="&lt;div&gt;Rozpoznany gest&lt;/div&gt;&lt;div&gt;&lt;br&gt;&lt;/div&gt;" style="text;html=1;strokeColor=none;fillColor=none;align=center;verticalAlign=middle;whiteSpace=wrap;rounded=0;" vertex="1" parent="1">
          <mxGeometry x="304" y="260" width="40" height="20" as="geometry" />
        </mxCell>
        <mxCell id="FUg8YmXKxeV6hpPRnzRZ-34" value="Klient" style="text;html=1;strokeColor=none;fillColor=none;align=center;verticalAlign=middle;whiteSpace=wrap;rounded=0;fontSize=18;fontStyle=1" vertex="1" parent="1">
          <mxGeometry x="264" y="40" width="40" height="20" as="geometry" />
        </mxCell>
        <mxCell id="FUg8YmXKxeV6hpPRnzRZ-35" value="" style="endArrow=classic;html=1;" edge="1" parent="1">
          <mxGeometry width="50" height="50" relative="1" as="geometry">
            <mxPoint x="320" y="419" as="sourcePoint" />
            <mxPoint x="490" y="419" as="targetPoint" />
          </mxGeometry>
        </mxCell>
        <mxCell id="FUg8YmXKxeV6hpPRnzRZ-37" value="" style="pointerEvents=1;shadow=0;dashed=0;html=1;strokeColor=none;fillColor=#505050;labelPosition=center;verticalLabelPosition=bottom;verticalAlign=top;outlineConnect=0;align=center;shape=mxgraph.office.devices.laptop;fontSize=18;" vertex="1" parent="1">
          <mxGeometry x="496" y="390" width="114" height="76" as="geometry" />
        </mxCell>
        <mxCell id="FUg8YmXKxeV6hpPRnzRZ-38" value="" style="endArrow=classic;html=1;fontSize=18;" edge="1" parent="1">
          <mxGeometry width="50" height="50" relative="1" as="geometry">
            <mxPoint x="604" y="389" as="sourcePoint" />
            <mxPoint x="694" y="389" as="targetPoint" />
          </mxGeometry>
        </mxCell>
        <mxCell id="FUg8YmXKxeV6hpPRnzRZ-39" value="" style="shape=image;html=1;verticalAlign=top;verticalLabelPosition=bottom;labelBackgroundColor=#ffffff;imageAspect=0;aspect=fixed;image=https://cdn3.iconfinder.com/data/icons/logos-and-brands-3/512/267_Python-128.png" vertex="1" parent="1">
          <mxGeometry x="703" y="349" width="70" height="70" as="geometry" />
        </mxCell>
        <mxCell id="FUg8YmXKxeV6hpPRnzRZ-42" value="Utworzenie serwera" style="text;html=1;strokeColor=none;fillColor=none;align=center;verticalAlign=middle;whiteSpace=wrap;rounded=0;" vertex="1" parent="1">
          <mxGeometry x="695.5" y="420" width="85" height="30" as="geometry" />
        </mxCell>
        <mxCell id="FUg8YmXKxeV6hpPRnzRZ-43" value="" style="endArrow=classic;html=1;fontSize=18;" edge="1" parent="1">
          <mxGeometry width="50" height="50" relative="1" as="geometry">
            <mxPoint x="684" y="409" as="sourcePoint" />
            <mxPoint x="604" y="409" as="targetPoint" />
          </mxGeometry>
        </mxCell>
        <mxCell id="FUg8YmXKxeV6hpPRnzRZ-45" value="Uruchomienie skryptu" style="text;html=1;strokeColor=none;fillColor=none;align=center;verticalAlign=middle;whiteSpace=wrap;rounded=0;" vertex="1" parent="1">
          <mxGeometry x="604" y="359" width="85" height="30" as="geometry" />
        </mxCell>
        <mxCell id="FUg8YmXKxeV6hpPRnzRZ-47" value="Udostępnienie portu" style="text;html=1;strokeColor=none;fillColor=none;align=center;verticalAlign=middle;whiteSpace=wrap;rounded=0;" vertex="1" parent="1">
          <mxGeometry x="604" y="415" width="85" height="30" as="geometry" />
        </mxCell>
        <mxCell id="FUg8YmXKxeV6hpPRnzRZ-49" value="&lt;font style=&quot;font-size: 12px&quot;&gt;Rozpoznany&amp;nbsp;&lt;/font&gt;&lt;font style=&quot;font-size: 12px&quot;&gt; gest&lt;/font&gt;" style="text;html=1;strokeColor=none;fillColor=none;align=center;verticalAlign=middle;whiteSpace=wrap;rounded=0;fontSize=18;" vertex="1" parent="1">
          <mxGeometry x="320" y="390" width="110" height="20" as="geometry" />
        </mxCell>
        <mxCell id="FUg8YmXKxeV6hpPRnzRZ-54" value="&lt;font style=&quot;font-size: 12px&quot;&gt;Zmiana &lt;font style=&quot;font-size: 12px&quot;&gt;stanu kwadratu&lt;/font&gt;&lt;br&gt;&lt;/font&gt;" style="outlineConnect=0;fontColor=#232F3E;gradientColor=none;strokeColor=#232F3E;fillColor=#ffffff;dashed=0;verticalLabelPosition=bottom;verticalAlign=top;align=center;html=1;fontSize=12;fontStyle=0;aspect=fixed;shape=mxgraph.aws4.resourceIcon;resIcon=mxgraph.aws4.traditional_server;" vertex="1" parent="1">
          <mxGeometry x="523" y="540" width="60" height="60" as="geometry" />
        </mxCell>
        <mxCell id="FUg8YmXKxeV6hpPRnzRZ-55" value="" style="endArrow=none;dashed=1;html=1;fontSize=18;" edge="1" parent="1">
          <mxGeometry width="50" height="50" relative="1" as="geometry">
            <mxPoint x="590" y="570" as="sourcePoint" />
            <mxPoint x="740" y="460" as="targetPoint" />
            <Array as="points">
              <mxPoint x="740" y="570" />
            </Array>
          </mxGeometry>
        </mxCell>
        <mxCell id="FUg8YmXKxeV6hpPRnzRZ-59" value="&lt;div&gt;Rozpoznany gest&lt;/div&gt;&lt;div&gt;&lt;br&gt;&lt;/div&gt;" style="text;html=1;strokeColor=none;fillColor=none;align=center;verticalAlign=middle;whiteSpace=wrap;rounded=0;" vertex="1" parent="1">
          <mxGeometry x="581" y="500" width="40" height="20" as="geometry" />
        </mxCell>
        <mxCell id="FUg8YmXKxeV6hpPRnzRZ-64" value="" style="endArrow=classic;html=1;fontSize=18;" edge="1" parent="1" source="FUg8YmXKxeV6hpPRnzRZ-37" target="FUg8YmXKxeV6hpPRnzRZ-54">
          <mxGeometry width="50" height="50" relative="1" as="geometry">
            <mxPoint x="550" y="560" as="sourcePoint" />
            <mxPoint x="600" y="510" as="targetPoint" />
          </mxGeometry>
        </mxCell>
        <mxCell id="FUg8YmXKxeV6hpPRnzRZ-65" value="&lt;div&gt;Serwer&lt;/div&gt;&lt;div&gt;&lt;br&gt;&lt;/div&gt;" style="text;html=1;strokeColor=none;fillColor=none;align=center;verticalAlign=middle;whiteSpace=wrap;rounded=0;fontSize=18;" vertex="1" parent="1">
          <mxGeometry x="610" y="320" width="40" height="20" as="geometry" />
        </mxCell>
      </root>
    </mxGraphModel>
  </diagram>
</mxfile>
